<svg width="18" height="19" viewBox="0 0 18 19" fill="none" xmlns="http://www.w3.org/2000/svg">
<path d="M9.81963 1.23522C9.56433 0.993859 9.22633 0.859375 8.875 0.859375C8.52367 0.859375 8.18567 0.993859 7.93038 1.23522L1.26988 7.52997C1.06594 7.72296 0.90355 7.95555 0.792663 8.2135C0.681775 8.47145 0.624723 8.74932 0.625001 9.0301V16.6888C0.625366 17.2356 0.842825 17.7599 1.22958 18.1464C1.61633 18.5329 2.14073 18.75 2.6875 18.75H4.75C5.29701 18.75 5.82162 18.5327 6.20841 18.1459C6.5952 17.7591 6.8125 17.2345 6.8125 16.6875V13.25C6.8125 13.0676 6.88493 12.8928 7.01387 12.7638C7.1428 12.6349 7.31767 12.5625 7.5 12.5625H10.25C10.4323 12.5625 10.6072 12.6349 10.7361 12.7638C10.8651 12.8928 10.9375 13.0676 10.9375 13.25V16.6875C10.9375 17.2345 11.1548 17.7591 11.5416 18.1459C11.9284 18.5327 12.453 18.75 13 18.75H15.0625C15.6095 18.75 16.1341 18.5327 16.5209 18.1459C16.9077 17.7591 17.125 17.2345 17.125 16.6875V9.02872C17.1249 8.74808 17.0676 8.47041 16.9564 8.2127C16.8453 7.955 16.6828 7.72268 16.4788 7.52997L9.81963 1.23522Z" fill="#3478F7"/>
</svg>
