<svg width="19" height="17" viewBox="0 0 19 17" fill="none" xmlns="http://www.w3.org/2000/svg">
<path d="M1.125 3.00008V12.9001C1.125 13.9268 1.125 14.4399 1.32482 14.832C1.50059 15.177 1.78085 15.458 2.12581 15.6338C2.5176 15.8334 3.03074 15.8334 4.0555 15.8334H14.6945C15.7193 15.8334 16.2317 15.8334 16.6234 15.6338C16.9684 15.458 17.2496 15.1772 17.4254 14.8322C17.6252 14.44 17.6252 13.9267 17.6252 12.8999L17.6252 5.93321C17.6252 4.90645 17.6252 4.39307 17.4254 4.0009C17.2496 3.65593 16.9686 3.37567 16.6236 3.1999C16.2315 3.00008 15.7184 3.00008 14.6917 3.00008H9.375M1.125 3.00008H9.375M1.125 3.00008C1.125 1.98756 1.94581 1.16675 2.95833 1.16675H6.32664C6.77506 1.16675 6.99979 1.16675 7.21079 1.2174C7.39785 1.26231 7.57636 1.33657 7.7404 1.43709C7.92535 1.55043 8.08416 1.70925 8.40104 2.02612L9.375 3.00008" stroke="#637D92" stroke-width="1.6" stroke-linecap="round" stroke-linejoin="round"/>
</svg>
