<svg width="19" height="17" viewBox="0 0 19 17" fill="none" xmlns="http://www.w3.org/2000/svg">
<path d="M1.125 12.8998V2.99984C1.125 1.98732 1.94581 1.1665 2.95833 1.1665H6.32664C6.77506 1.1665 6.99979 1.1665 7.21079 1.21716C7.39785 1.26207 7.57636 1.33633 7.7404 1.43685C7.92535 1.55019 8.08416 1.709 8.40104 2.02588L9.375 2.99984H14.6917C15.7184 2.99984 16.2315 2.99984 16.6236 3.19966C16.9686 3.37543 17.2496 3.65569 17.4254 4.00065C17.6252 4.39282 17.6252 4.9062 17.6252 5.93297L17.6252 12.8997C17.6252 13.9264 17.6252 14.4398 17.4254 14.832C17.2496 15.1769 16.9684 15.4578 16.6234 15.6335C16.2317 15.8332 15.7193 15.8332 14.6945 15.8332H4.0555C3.03074 15.8332 2.5176 15.8332 2.12581 15.6335C1.78085 15.4578 1.50059 15.1768 1.32482 14.8318C1.125 14.4396 1.125 13.9266 1.125 12.8998Z" fill="#3478F7"/>
<path d="M1.125 2.99984V12.8998C1.125 13.9266 1.125 14.4396 1.32482 14.8318C1.50059 15.1768 1.78085 15.4578 2.12581 15.6335C2.5176 15.8332 3.03074 15.8332 4.0555 15.8332H14.6945C15.7193 15.8332 16.2317 15.8332 16.6234 15.6335C16.9684 15.4578 17.2496 15.1769 17.4254 14.832C17.6252 14.4398 17.6252 13.9264 17.6252 12.8997L17.6252 5.93297C17.6252 4.9062 17.6252 4.39282 17.4254 4.00065C17.2496 3.65569 16.9686 3.37543 16.6236 3.19966C16.2315 2.99984 15.7184 2.99984 14.6917 2.99984H9.375M1.125 2.99984H9.375M1.125 2.99984C1.125 1.98732 1.94581 1.1665 2.95833 1.1665H6.32664C6.77506 1.1665 6.99979 1.1665 7.21079 1.21716C7.39785 1.26207 7.57636 1.33633 7.7404 1.43685C7.92535 1.55019 8.08416 1.709 8.40104 2.02588L9.375 2.99984" stroke="#3478F7" stroke-width="1.6" stroke-linecap="round" stroke-linejoin="round"/>
</svg>
