<svg width="23" height="15" viewBox="0 0 23 15" fill="none" xmlns="http://www.w3.org/2000/svg">
<path d="M14.7591 13.3118C14.8268 13.4156 14.8651 13.5357 14.8702 13.6594C14.8752 13.7831 14.8468 13.9059 14.7878 14.0148C14.7288 14.1237 14.6415 14.2147 14.5351 14.278C14.4287 14.3414 14.3072 14.3749 14.1833 14.3749H1.50413C1.38029 14.3749 1.25875 14.3414 1.15236 14.278C1.04597 14.2147 0.95867 14.1237 0.89969 14.0148C0.84071 13.9059 0.812238 13.7831 0.817282 13.6594C0.822326 13.5357 0.860699 13.4156 0.928346 13.3118C1.89609 11.8222 3.31955 10.6855 4.98632 10.0711C4.06489 9.45772 3.36534 8.56404 2.9911 7.52228C2.61687 6.48052 2.58782 5.34598 2.90825 4.28644C3.22869 3.22689 3.88159 2.29859 4.77042 1.63881C5.65924 0.979031 6.7368 0.622803 7.84374 0.622803C8.95068 0.622803 10.0282 0.979031 10.9171 1.63881C11.8059 2.29859 12.4588 3.22689 12.7792 4.28644C13.0997 5.34598 13.0706 6.48052 12.6964 7.52228C12.3221 8.56404 11.6226 9.45772 10.7012 10.0711C12.3679 10.6855 13.7914 11.8222 14.7591 13.3118ZM22.3139 13.299C21.3459 11.8156 19.9256 10.6837 18.2637 10.0711C19.3514 9.3384 20.1191 8.21868 20.4104 6.93988C20.7017 5.66108 20.4948 4.31933 19.8317 3.18775C19.1686 2.05616 18.0992 1.21979 16.8412 0.848873C15.5832 0.477959 14.2311 0.600382 13.0601 1.19122C13.0154 1.21434 12.9762 1.24702 12.9455 1.28695C12.9147 1.32688 12.8932 1.37307 12.8822 1.42227C12.8713 1.47147 12.8714 1.52246 12.8824 1.57164C12.8934 1.62081 12.915 1.66697 12.9458 1.70685C13.8165 2.79293 14.3166 4.12929 14.3727 5.52016C14.4288 6.91104 14.0381 8.28334 13.2578 9.43607C13.2074 9.5114 13.1887 9.60361 13.2059 9.69261C13.2232 9.78162 13.2749 9.86022 13.3498 9.9113C14.3672 10.6213 15.2382 11.5209 15.915 12.5608C16.188 12.9788 16.2995 13.4819 16.2287 13.9761C16.2207 14.0253 16.2235 14.0756 16.2369 14.1236C16.2503 14.1716 16.2739 14.216 16.3062 14.254C16.3385 14.2919 16.3787 14.3224 16.4239 14.3432C16.4691 14.3641 16.5183 14.3749 16.5681 14.3749H21.7501C21.9015 14.3749 22.0487 14.325 22.1688 14.2329C22.2889 14.1407 22.3753 14.0115 22.4144 13.8653C22.4383 13.7691 22.4417 13.669 22.4244 13.5714C22.4071 13.4739 22.3694 13.381 22.3139 13.299Z" fill="#3478F7"/>
</svg>
