<svg width="29" height="28" viewBox="0 0 29 28" fill="none" xmlns="http://www.w3.org/2000/svg">
<circle cx="14.5" cy="14" r="13.5" fill="url(#paint0_linear_383_5277)" stroke="white"/>
<path d="M17.2619 8.06031L17.334 8.1019C17.9564 8.46125 18.4755 8.76089 18.8555 9.05418C19.2567 9.36375 19.5751 9.71908 19.7084 10.2168C19.8418 10.7145 19.7437 11.1814 19.5511 11.6501C19.4174 11.9754 19.2208 12.3409 18.9839 12.7579L18.4757 12.4559L18.4691 12.452L12.9294 9.25363L12.4113 8.94829C12.6513 8.53945 12.8676 8.19026 13.0806 7.91432C13.3901 7.51317 13.7455 7.19478 14.2432 7.06142C14.7409 6.92806 15.2078 7.02613 15.6765 7.21876C16.1205 7.40125 16.6395 7.70093 17.2619 8.06031Z" fill="#FAFAFA"/>
<path d="M11.8102 9.98682L9.02806 14.8055C8.78985 15.2173 8.6015 15.543 8.53172 15.9133C8.46194 16.2837 8.51888 16.6555 8.5909 17.1258L8.6103 17.2529C8.74324 18.1259 8.85282 18.8455 9.01808 19.3912C9.19092 19.9619 9.45663 20.4559 9.9792 20.7576C10.5018 21.0593 11.0624 21.0424 11.6431 20.9067C12.1983 20.777 12.8762 20.5121 13.6988 20.1907L13.8186 20.144C14.2618 19.9712 14.6123 19.8346 14.8982 19.589C15.184 19.3434 15.3718 19.0175 15.6094 18.6053L18.3849 13.7978L17.8659 13.4893L12.3224 10.2887L11.8102 9.98682Z" fill="#FAFAFA"/>
<defs>
<linearGradient id="paint0_linear_383_5277" x1="5.5" y1="1" x2="26" y2="26.5" gradientUnits="userSpaceOnUse">
<stop offset="0.119204" stop-color="#735CD8"/>
<stop offset="1" stop-color="#3478F7"/>
</linearGradient>
</defs>
</svg>
