<svg width="16" height="16" viewBox="0 0 16 16" fill="none" xmlns="http://www.w3.org/2000/svg">
<path d="M8.64803 0C8.86845 0.000244486 9.08046 0.0846461 9.24073 0.23596C9.40101 0.387274 9.49747 0.594079 9.51038 0.814121C9.5233 1.03416 9.45171 1.25083 9.31024 1.41986C9.16876 1.58889 8.96809 1.69752 8.74921 1.72355L8.64803 1.72961H1.72961V13.8368H13.8368V6.91842C13.8371 6.698 13.9215 6.48599 14.0728 6.32571C14.2241 6.16543 14.4309 6.06898 14.651 6.05606C14.871 6.04315 15.0877 6.11474 15.2567 6.25621C15.4257 6.39768 15.5344 6.59836 15.5604 6.81724L15.5664 6.91842V13.8368C15.5666 14.2732 15.4018 14.6935 15.1051 15.0134C14.8084 15.3334 14.4017 15.5294 13.9666 15.5621L13.8368 15.5664H1.72961C1.29325 15.5666 0.872961 15.4018 0.553 15.1051C0.233039 14.8084 0.0370511 14.4017 0.0043242 13.9666L8.6712e-08 13.8368V1.72961C-0.000138005 1.29325 0.164664 0.872961 0.46137 0.553C0.758075 0.233039 1.16475 0.037051 1.59988 0.00432411L1.72961 0H8.64803ZM14.047 0.296627C14.2026 0.141527 14.4114 0.0514787 14.6311 0.0447725C14.8507 0.0380663 15.0646 0.115205 15.2294 0.260521C15.3942 0.405837 15.4975 0.608433 15.5184 0.827162C15.5392 1.04589 15.476 1.26435 15.3416 1.43817L15.2698 1.52032L6.70827 10.081C6.55265 10.2361 6.34382 10.3262 6.1242 10.3329C5.90458 10.3396 5.69065 10.2624 5.52585 10.1171C5.36105 9.9718 5.25774 9.7692 5.2369 9.55047C5.21606 9.33174 5.27926 9.11328 5.41366 8.93946L5.48544 8.85817L14.047 0.296627Z" fill="black"/>
</svg>
