<svg width="22" height="22" viewBox="0 0 22 22" fill="none" xmlns="http://www.w3.org/2000/svg">
<path d="M3.2879 12.6306C4.91905 14.2522 7.76374 16.4999 11.0002 16.4999C14.2366 16.4999 17.0807 14.2522 18.7119 12.6306C19.1421 12.2029 19.3579 11.9883 19.4949 11.5684C19.5926 11.2688 19.5926 10.7312 19.4949 10.4316C19.3579 10.0117 19.1421 9.79706 18.7119 9.36935C17.0807 7.74774 14.2366 5.5 11.0002 5.5C7.76374 5.5 4.91905 7.74774 3.2879 9.36935C2.85738 9.79736 2.6421 10.0115 2.50506 10.4316C2.40733 10.7312 2.40733 11.2688 2.50506 11.5684C2.6421 11.9885 2.85737 12.2026 3.2879 12.6306Z" stroke="white" stroke-width="1.6" stroke-linecap="round" stroke-linejoin="round"/>
<path d="M9.16667 11C9.16667 12.0125 9.98748 12.8333 11 12.8333C12.0125 12.8333 12.8333 12.0125 12.8333 11C12.8333 9.98748 12.0125 9.16667 11 9.16667C9.98748 9.16667 9.16667 9.98748 9.16667 11Z" stroke="white" stroke-width="1.6" stroke-linecap="round" stroke-linejoin="round"/>
</svg>
